<svg class="icon" style="width: 1.25em;height: 1em;vertical-align: middle;fill: currentColor;overflow: hidden;" viewBox="0 0 1280 1024" version="1.1" xmlns="http://www.w3.org/2000/svg" p-id="3733"><path d="M384 512c123.8 0 224-100.2 224-224S507.8 64 384 64 160 164.2 160 288s100.2 224 224 224z m153.6 64h-16.6c-41.6 20-87.8 32-137 32s-95.2-12-137-32h-16.6C103.2 576 0 679.2 0 806.4V864c0 53 43 96 96 96h576c53 0 96-43 96-96v-57.6c0-127.2-103.2-230.4-230.4-230.4zM960 512c106 0 192-86 192-192s-86-192-192-192-192 86-192 192 86 192 192 192z m96 64h-7.6c-27.8 9.6-57.2 16-88.4 16s-60.6-6.4-88.4-16H864c-40.8 0-78.4 11.8-111.4 30.8 48.8 52.6 79.4 122.4 79.4 199.6v76.8c0 4.4-1 8.6-1.2 12.8H1184c53 0 96-43 96-96 0-123.8-100.2-224-224-224z" p-id="3734"></path></svg>
