<?xml version="1.0" encoding="UTF-8" standalone="no"?>
<svg
   enable-background="new 0 0 400 400"
   version="1.1"
   viewBox="0 0 400 400"
   id="svg200"
   sodipodi:docname="icon.svg"
   inkscape:version="1.1.2 (0a00cf5339, 2022-02-04)"
   xmlns:inkscape="http://www.inkscape.org/namespaces/inkscape"
   xmlns:sodipodi="http://sodipodi.sourceforge.net/DTD/sodipodi-0.dtd"
   xmlns="http://www.w3.org/2000/svg"
   xmlns:svg="http://www.w3.org/2000/svg">
  <sodipodi:namedview
     id="namedview29"
     pagecolor="#ffffff"
     bordercolor="#666666"
     borderopacity="1.0"
     inkscape:pageshadow="2"
     inkscape:pageopacity="0.0"
     inkscape:pagecheckerboard="0"
     showgrid="false"
     inkscape:zoom="1.635"
     inkscape:cx="200"
     inkscape:cy="200.30581"
     inkscape:window-width="1536"
     inkscape:window-height="936"
     inkscape:window-x="0"
     inkscape:window-y="0"
     inkscape:window-maximized="1"
     inkscape:current-layer="svg200" />
  <defs
     id="defs204" />
  <g
     id="g1018"
     transform="matrix(1.3000699,0.19862256,-0.19862256,1.3000699,-3.0992898,-91.950292)">
    <path
       d="m 294.20164,47.381817 c -3.57215,0 -7.14433,0.446514 -10.7165,1.562823 -8.4839,2.232601 -16.29803,5.134982 -23.88889,9.153686 -7.3676,3.795424 -15.62823,5.581511 -23.44235,8.707152 -6.2513,2.455866 -12.50261,4.688473 -18.30738,8.03739 -13.6189,7.590859 -27.01453,15.628221 -40.41017,23.665626 -8.26063,4.911726 -16.52128,9.823476 -24.55866,14.958446 -2.90239,1.78609 -5.58151,4.01869 -8.03739,6.25131 -13.39563,12.94911 -27.01453,25.45171 -37.73104,40.63342 -5.58151,7.81413 -12.05607,15.405 -15.851501,23.88888 -8.037382,17.86087 -18.307369,35.27519 -20.539976,54.92213 -0.893041,6.92106 -3.79543,13.17236 -4.911732,19.87019 -1.339565,7.81411 -1.786085,15.62824 -1.562824,23.44236 0.223259,9.60021 0.669782,18.97715 1.116302,28.57735 0.669782,14.95847 2.009346,29.69367 2.679129,33.04257 l 1.339561,6.02804 c 0.446523,2.00935 1.339564,4.46522 3.125651,5.35827 2.679126,1.33955 3.795428,-1.33959 5.358253,-3.34892 3.79543,-4.46521 7.3676,-8.93043 11.386291,-13.39564 2.455867,-2.90239 3.795429,-5.80477 3.348909,-9.60019 -1.339564,-10.71652 -1.562823,-21.6563 -5.804776,-31.92628 -0.669781,-1.78609 -0.669781,-4.0187 -0.893042,-5.80478 -1.339564,-12.05606 -2.455866,-24.11213 -3.79543,-36.39147 -0.223261,-1.78608 0,-3.57217 0.446521,-5.35826 1.562825,-6.25129 3.125649,-12.72587 4.911733,-18.97715 0.446523,-1.33956 1.116303,-2.67913 2.009346,-3.79543 5.581515,-8.26063 10.939765,-16.74454 17.191065,-24.33541 6.2513,-7.81411 13.6189,-14.95846 20.53998,-22.1028 3.79543,-3.79542 8.03738,-7.14433 13.39563,-9.15369 4.46522,-1.78609 7.81412,-5.80477 12.27934,-7.8141 16.29803,-7.3676 31.25648,-17.86087 48.89407,-22.32607 2.45586,-0.66978 4.46521,-2.45587 6.69782,-3.79544 7.14434,-3.79542 14.28868,-7.59084 21.43302,-11.60955 9.37694,-5.13498 18.75389,-10.49325 27.90756,-15.62825 2.00935,-1.11629 3.79544,-2.90237 5.80479,-3.79543 16.9678,-7.814106 27.90756,-21.879526 40.63343,-33.935598 2.45586,-2.232607 3.57217,-4.688473 4.01868,-7.590871 0.89305,-4.688468 -0.66978,-9.823465 -1.78608,-11.609538 -0.89305,-2.009352 -6.2513,-5.804776 -12.27934,-5.804776 z"
       fill="#ffffff"
       id="path176"
       style="stroke-width:2.23261" />
    <path
       d="m 205.79045,61.223971 c -4.01869,-2.009352 -8.70717,-3.572174 -13.17237,-4.018688 -2.9024,-0.44653 -6.02804,-0.44653 -8.93044,-0.44653 -4.91173,0 -9.37693,0.223265 -10.04672,0.669779 -0.66978,0.44653 -1.33956,1.116308 -1.33956,1.562822 0,0.223265 -0.22326,0.669795 -0.44652,0.893045 -3.57218,7.59087 -2.67912,9.376945 4.68847,13.39564 8.70716,4.911733 16.52129,3.795436 24.33541,-2.232607 1.33957,-0.893037 3.12564,-1.33957 4.46521,-2.232593 3.79542,-2.45587 4.24196,-5.804779 0.44652,-7.590868 z"
       fill="#ffffff"
       id="path178"
       style="stroke-width:2.23261" />
    <path
       d="m 243.07496,134.23019 c -1.78608,-0.44652 -4.24195,-0.44652 -5.80477,0.44653 -2.45586,1.56282 -4.68847,3.79542 -6.2513,6.02802 -3.12564,4.24195 -6.02803,8.93042 -8.93041,13.39564 -0.66978,1.11631 -1.11631,2.67914 -1.78609,3.79542 -1.33956,3.12567 -0.66978,6.02804 2.00933,8.0374 1.56285,1.11629 3.34892,1.56282 5.13501,1.56282 3.12564,-0.22326 6.02803,-2.45587 7.14434,-3.57218 0.66978,-0.66977 1.1163,-1.33955 1.56283,-2.23259 3.3489,-7.3676 7.81412,-14.51195 8.70715,-22.54933 0.44654,-2.00933 0.66978,-4.24195 -1.78609,-4.91173 z"
       fill="#ffffff"
       id="path180"
       style="stroke-width:2.23261" />
    <path
       d="m 284.15491,63.679837 c -7.59084,-2.455866 -14.73519,-2.232601 -21.20974,3.348914 -0.66979,0.669778 -2.23261,1.562815 -2.67914,1.339556 -4.91173,-2.009338 -8.70716,1.339555 -12.94911,2.232607 -4.68847,1.116296 -9.60021,2.232607 -14.51194,2.009347 -7.3676,-0.223259 -12.94912,1.339556 -17.19106,7.590859 -2.00935,2.902384 -4.46522,5.358251 -8.4839,5.804769 -2.00936,0.223246 -3.79544,1.786089 -5.80478,2.679112 -7.59086,4.018709 -12.05608,9.823493 -13.6189,17.860879 -0.89304,4.24195 -3.34891,6.92106 -8.26065,7.59086 -2.2326,0.22324 -4.24195,0.89302 -6.25129,1.11629 -2.23261,0.44654 -4.68848,0.66978 -6.92108,1.33957 -10.93976,2.90239 -27.23779,19.2004 -29.69366,29.69367 -1.33956,5.58151 0,7.14433 5.58152,5.58151 10.04673,-2.45586 20.09346,-5.135 29.69366,-8.4839 6.47456,-2.23261 10.04671,-7.59088 13.17237,-13.17239 6.02803,-10.04672 6.02803,-10.04672 16.74455,-5.13499 5.13499,2.45587 10.26999,2.45587 15.18173,-0.89305 4.24194,-2.67911 8.93041,-5.13498 13.61888,-7.3676 1.11631,-0.66978 2.45587,-1.33956 3.57218,-1.33956 11.60955,1.11631 19.87019,-6.92108 29.91691,-10.27 5.35826,-1.78607 23.88889,-25.898208 25.45172,-31.033214 2.23259,-6.028029 0.89304,-8.483902 -5.35827,-10.493239 z"
       fill="#BF170F"
       id="path182"
       style="fill:#1ea3e0;fill-opacity:1;stroke-width:2.23261" />
    <path
       d="m 125.86315,159.23538 c -2.67912,0.89304 -7.3676,4.4652 -10.93977,6.92107 -2.00934,1.56282 -4.01869,3.12566 -6.2513,4.68849 -1.1163,0.89303 -2.00934,2.23259 -2.67912,3.3489 -2.23261,3.79542 -2.23261,10.04671 0.44652,11.8328 4.01869,2.9024 7.81412,0.66978 11.16303,-1.56282 8.03738,-4.68847 13.17238,-15.40497 11.60955,-23.66562 0,-1.56282 -0.89304,-2.23259 -3.34891,-1.56282 z"
       fill="#BF170F"
       id="path184"
       style="fill:#1ea3e0;fill-opacity:1;stroke-width:2.23261" />
    <path
       d="m 73.17365,301.8989 c -1.339562,0.22326 -2.679126,1.1163 -3.348908,3.12565 -0.669782,1.33957 -0.893043,2.90238 -0.893043,4.46521 -0.223259,2.45587 0.44652,5.80477 1.339564,7.3676 0.893043,1.56283 2.455867,2.90239 3.348909,3.12566 0.893042,0.22324 2.902388,-0.22327 4.01869,-0.89305 1.339564,-0.66978 4.241952,-4.68848 3.125649,-8.70717 -0.893042,-3.79542 -4.911733,-8.70716 -7.590861,-8.4839 z"
       fill="#bf170f"
       id="path186"
       style="fill:#1ea3e0;fill-opacity:1;stroke-width:2.23261" />
    <path
       d="m 309.60664,70.154395 c -1.11631,0.669778 -2.00936,1.562815 -2.9024,2.455866 -12.27933,14.958457 -27.46106,26.791256 -44.65212,36.168209 -32.14952,17.86085 -64.07579,36.39149 -98.01141,50.90342 -10.26998,4.46523 -19.87019,10.04674 -29.24713,15.85151 -20.9865,13.17238 -34.828658,31.70301 -44.205603,53.13602 -4.911732,11.16303 -6.921077,22.99585 -7.590859,34.82866 -0.223261,1.78609 -0.223261,3.57216 0.223259,5.35825 2.679128,11.60955 5.134995,23.44237 8.037382,35.05192 1.339564,5.58151 3.125649,11.16304 5.134995,16.52127 2.679127,6.69782 2.232604,12.50261 -2.902388,18.08412 -5.581514,6.02804 -11.163031,12.05608 -16.521286,18.0841 -0.44652,0.44653 -0.669782,0.89305 -0.893041,1.56283 -0.223261,0.89304 0,1.33957 0.893041,1.33957 0.893043,-0.22326 1.786086,-0.22326 2.009346,0 0.223261,0.22326 5.134995,-5.13499 10.71651,-11.83281 3.348907,-4.0187 6.697818,-8.26065 9.600204,-12.72587 2.23261,-3.34889 1.33956,-9.15367 0.446523,-13.39563 -3.79543,-18.97715 -8.930425,-37.9543 -11.609552,-57.15471 -1.786086,-12.72585 2.902389,-25.67498 8.930424,-37.50778 11.386285,-21.65627 26.568015,-40.18692 50.010365,-51.5732 17.6376,-8.70716 35.7217,-16.74453 53.13603,-26.12149 25.67497,-13.84215 51.34994,-27.68431 76.13187,-42.64277 13.39564,-8.260659 25.67497,-18.307384 33.71235,-31.926271 0.66977,-1.11631 1.11631,-2.232607 1.33957,-3.348904 0.66979,-1.786088 -0.22326,-2.455866 -1.78608,-1.11631 z"
       id="path188"
       style="stroke-width:2.23261" />
    <path
       d="m 294.87143,42.24682 c -0.66979,-0.223265 -1.1163,-0.44653 -1.78607,-0.223265 -6.69783,0.669778 -13.39565,0.669778 -19.64695,2.455866 -27.01453,7.367599 -53.35928,16.967815 -78.14122,29.916929 -8.93041,4.688459 -25.22844,-1.116311 -28.80061,-10.046733 -1.33956,-3.572176 -0.66978,-6.251291 3.12565,-8.260643 5.58151,-2.902381 11.3863,-4.688468 17.41433,-3.348911 6.47455,1.562824 12.72586,4.01869 19.20041,6.028042 0.66978,0.223249 1.33956,0.446514 2.23261,0.446514 1.11631,0.223265 1.78609,-0.669779 1.11631,-1.786087 -0.44654,-0.669779 -0.89305,-1.339558 -1.33957,-1.786073 -9.37695,-6.02804 -27.01455,-11.609552 -41.30321,-3.348909 -6.47456,3.348909 -8.03739,8.037378 -5.58153,14.288668 2.45587,5.804784 7.14434,9.153688 12.72587,12.056086 5.58151,2.902371 5.35824,3.572149 0.22326,7.367585 -21.20976,15.851491 -44.65213,29.693681 -59.61059,51.796471 -12.27933,18.08411 -22.772579,37.28453 -34.158869,56.03841 -2.455866,4.0187 -4.911734,8.26065 -7.144339,12.27933 -0.223262,0.66978 -0.446522,1.33956 -0.223262,2.00934 0,1.11631 0.893044,1.78609 2.009346,1.11631 0.669782,-0.44652 1.116302,-0.66978 1.562825,-1.33956 1.339564,-1.56283 2.009345,-3.57218 2.902387,-5.35826 11.609551,-20.76324 21.879542,-42.41951 37.284522,-61.39666 13.39564,-16.52129 30.80997,-29.24715 48.22429,-41.972998 23.21911,-16.967819 49.3406,-28.800618 76.35513,-39.070609 6.92108,-2.679131 13.6189,-5.134997 20.76323,-7.3676 10.26999,-3.125644 20.76324,-5.58151 31.03322,-8.260642 0.66978,-0.223264 1.11631,-0.446514 1.56283,-0.669779 0.89304,-0.669779 0.89304,-1.339557 0,-1.562822 z"
       id="path190"
       style="stroke-width:2.23261" />
    <path
       d="m 68.038658,221.30182 c -0.669783,0.44653 -1.116305,1.11631 -1.339565,1.78609 -2.232607,8.48391 -4.24195,16.9678 -6.251296,25.4517 -6.474559,29.91693 -4.911733,59.83385 -1.562825,89.52751 0.446521,3.34892 2.902389,6.47456 3.572171,10.04672 1.339561,5.80477 1.786084,11.83282 2.679125,17.63759 0,0.66977 0.223261,1.11631 0.446523,1.78609 0.44652,0.89305 1.116302,1.56282 1.786084,1.56282 0.44652,0 1.116303,-1.33955 1.562824,-2.90238 0.223261,-0.89304 0.223261,-1.78609 0.223261,-2.67913 -0.44652,-3.34891 -1.786085,-6.47456 -2.009345,-9.82346 -1.562824,-14.7352 -2.679129,-29.47041 -4.241952,-44.42887 -2.232607,-21.20976 0.893041,-42.19626 4.01869,-63.18276 1.116305,-7.3676 2.455866,-14.7352 3.572171,-22.10279 0,-0.66978 0,-1.33956 -0.223261,-2.00934 -0.223262,-1.11631 -1.339564,-1.33957 -2.232605,-0.66979 z"
       id="path192"
       style="stroke-width:2.23261" />
    <path
       d="m 251.11236,134.23019 c -0.44652,0.44653 -1.11632,0.89304 -1.33957,1.33957 -5.135,9.82346 -6.92107,19.87017 -14.7352,28.57736 -1.78609,2.00933 -4.0187,4.01868 -6.69782,4.4652 -3.12565,0.44653 -6.25129,-1.1163 -8.03738,-3.57217 -1.56283,-2.45586 -1.78609,-5.80477 -0.89304,-8.48391 1.1163,-4.24195 6.47455,-8.26063 5.80477,-12.72586 -0.22326,-1.56282 -6.02804,2.00936 -6.47456,2.45589 -1.1163,1.11629 -2.00935,2.2326 -2.67913,3.57215 -1.11631,2.23261 -3.57217,8.26065 -2.67912,13.17239 0.89304,5.13499 7.3676,10.04672 11.60955,10.49324 4.24196,0.44653 12.50259,-4.0187 16.96781,-10.04671 2.90238,-3.57218 5.13499,-7.59087 6.69782,-11.60956 2.00935,-4.91173 3.12564,-10.04673 4.46521,-15.18173 0.22326,-0.44651 0,-1.11629 0,-1.56282 -0.44652,-1.33956 -1.11631,-1.56282 -2.00934,-0.89304 z"
       id="path194"
       style="stroke-width:2.23261" />
    <path
       d="m 202.66479,105.65283 c -1.78607,0.44652 -3.3489,0.89305 -4.91173,1.56283 -4.4652,2.00934 -8.70715,4.68846 -12.94911,7.14432 -26.56801,13.84217 -47.10798,34.38216 -67.87122,54.69887 -0.89305,0.89304 -1.56283,2.00933 -2.23261,3.12564 -0.89304,1.78609 -0.22326,2.45587 1.33956,1.33956 1.11631,-0.66978 2.00935,-1.33956 3.12565,-2.23261 16.52129,-14.28868 32.37279,-29.02388 49.56385,-42.4195 9.37695,-7.3676 20.76324,-12.5026 31.2565,-18.75391 l 4.01868,-2.67911 c 1.78609,-1.56282 1.33957,-2.45587 -1.33957,-1.78609 z"
       id="path196"
       style="stroke-width:2.23261" />
    <path
       d="m 312.50901,44.479421 c -1.56281,-0.669779 -4.01868,0.669778 -4.01868,2.009352 0,0.893044 0,1.786072 0.22326,2.679116 0.44652,2.009352 2.45587,12.502597 5.80478,11.609552 2.90238,-0.669778 1.11629,-12.279331 0.22325,-14.288668 -0.44652,-0.893044 -1.33956,-1.562822 -2.23261,-2.009352 z"
       id="path198"
       style="stroke-width:2.23261" />
  </g>
</svg>
