<?xml version="1.0" standalone="no"?><!DOCTYPE svg PUBLIC "-//W3C//DTD SVG 1.1//EN" "http://www.w3.org/Graphics/SVG/1.1/DTD/svg11.dtd"><svg t="1579787991806" class="icon" viewBox="0 0 1024 1024" version="1.1" xmlns="http://www.w3.org/2000/svg" p-id="1871" xmlns:xlink="http://www.w3.org/1999/xlink" width="200" height="200"><defs><style type="text/css"></style></defs><path d="M217.6 44.957808s135.616877-63.81063 265.959452-27.437589c-33.756932 143.654575-102.526247 444.107397-102.526247 444.107397l-245.942356-56.782904L217.6 44.957808z m-98.332055 428.431781L30.818192 856.498849s44.579068 85.202411 225.588603 144.945096l108.803506-471.271452-245.942356-56.782904z" fill="#218359" p-id="1872"></path><path d="M368.001753 517.421589c-41.500055 29.913425-68.523836 84.795616 0 178.218082C436.525589 789.041096 749.196274 1024 749.196274 1024S619.611178 694.496438 547.657644 602.224219C475.697096 509.952 409.494795 487.508164 368.008767 517.428603zM520.220055 436.672877c-15.752767 43.779507 2.468822 81.772712 76.119671 115.14389 73.643836 33.371178 397.304986 25.97874 397.304986 25.97874s-249.813918-150.219397-328.255123-170.573151c-78.441205-20.360767-129.423781-14.321973-145.169534 29.457534z" fill="#218359" p-id="1873"></path></svg>